:SAMPLES-PER-SECOND 30
:FRAME-RANGE 1-2045
:FULLY-SPECIFIED
:DEGREES
895
root  68.5435 38.4094 -51.9556 -8.94016 -83.0219 12.8115
RightUpLeg  -19.837 -10.4201 -9.50677
RightLeg  27.5231 0.562575 0.0755331
RightFoot  -9.30774 -0.287524 12.5742
RightToes  5.82063e-011 0 -3.6325e-017
Spine  13.4099 -1.6449 13.3725
Spine1  1.13793 0.111261 -0.658794
HEad  5.36526 6.14797 -15.4982
LeftShoulder1  1.26444 -0.0420599 -29.5843
LeftArm  21.5669 17.1586 -33.4514
LeftForeArm  1.30401 -20.7112 -6.43276
LeftHand  0.0968217 -3.32286 -1.05164
RightShoulder  5.72813 8.75626 40.6097
RightArm  19.9674 1.28873 12.309
RightForeArm  -9.082 20.8961 6.65483
RightHand  0.39006 4.93282 4.07761
LeftUpLeg  -17.0532 17.5049 -0.0647977
LeftLeg  52.8331 2.00219 3.30283
LeftFoot  0.887395 1.18612 -11.0975
LeftToes  -3.90176e-010 -2.48536e-010 1.05482e-011
896
root  67.8754 38.6878 -52.0572 -14.5434 -82.0586 19.1791
RightUpLeg  -18.5668 -11.7708 -10.3866
RightLeg  26.0355 1.02999 0.30919
RightFoot  -9.29212 -0.286515 12.4293
RightToes  5.82063e-011 0 -3.6325e-017
Spine  13.6487 -1.43125 13.1578
Spine1  0.855781 0.218331 -0.57748
HEad  5.21157 4.56585 -15.4307
LeftShoulder1  1.29884 -0.154635 -29.4263
LeftArm  20.5823 15.9961 -32.8434
LeftForeArm  1.2139 -20.3348 -6.74808
LeftHand  0.123576 -3.08687 -1.46595
RightShoulder  5.77524 9.19056 39.4411
RightArm  18.8906 2.3398 11.6438
RightForeArm  -9.8554 22.6172 5.7114
RightHand  0.389326 4.85354 4.10596
LeftUpLeg  -21.1029 21.5745 -1.74367
LeftLeg  55.0526 3.22192 5.44096
LeftFoot  -0.147624 0.948475 -9.65454
LeftToes  -3.90176e-010 -2.48536e-010 1.05482e-011
897
root  67.1896 38.9762 -52.0659 -18.3187 -81.2908 23.6135
RightUpLeg  -16.9406 -13.0159 -11.2532
RightLeg  24.036 1.65045 0.5761
RightFoot  -8.98578 -0.318328 12.455
RightToes  5.82063e-011 0 -3.6325e-017
Spine  13.9296 -1.3041 13.0181
Spine1  0.333884 0.225709 -0.407528
HEad  5.35509 3.75932 -15.7002
LeftShoulder1  1.30834 -0.215819 -29.0925
LeftArm  18.1285 15.0377 -32.1271
LeftForeArm  1.71146 -19.5774 -7.35398
LeftHand  0.174473 -2.93039 -2.21725
RightShoulder  5.88697 9.72352 38.4907
RightArm  15.9609 3.30251 10.9555
RightForeArm  -8.46317 24.4938 5.66472
RightHand  0.359125 4.62101 3.86726
LeftUpLeg  -24.2423 25.0416 -3.45454
LeftLeg  54.4638 2.53598 4.29916
LeftFoot  -0.337402 1.02679 -10.6173
LeftToes  -3.90176e-010 -2.48536e-010 1.05482e-011
898
root  66.499 39.2268 -51.9983 -20.2232 -80.4441 26.5077
RightUpLeg  -15.5209 -14.2755 -12.1341
RightLeg  21.8677 2.2095 0.861078
RightFoot  -8.66977 -0.3589 12.8035
RightToes  5.82063e-011 0 -3.6325e-017
Spine  13.8091 -1.18921 12.5583
Spine1  -0.404743 0.0265514 0.23511
HEad  5.57102 3.33538 -16.1143
LeftShoulder1  1.31495 -0.276436 -28.6958
LeftArm  16.0368 14.7016 -31.3501
LeftForeArm  1.86742 -19.4506 -7.40806
LeftHand  0.181841 -2.82365 -2.35894
RightShoulder  5.89341 9.91131 37.9354
RightArm  12.5894 4.37457 10.32
RightForeArm  -6.82503 27.2024 6.21321
RightHand  0.325427 4.16689 3.67379
LeftUpLeg  -27.2269 27.3991 -5.36593
LeftLeg  51.7135 0.347401 0.927739
LeftFoot  -0.512115 1.16359 -12.2088
LeftToes  -3.90176e-010 -2.48536e-010 1.05482e-011
899
root  65.7865 39.4631 -51.8861 -20.864 -79.616 28.0037
RightUpLeg  -13.5836 -15.0149 -13.0655
RightLeg  19.1486 2.35342 1.12361
RightFoot  -8.25021 -0.413249 13.1735
RightToes  5.82063e-011 0 -3.6325e-017
Spine  13.5348 -1.0368 11.8084
Spine1  -0.893402 -0.202142 1.18547
HEad  5.60541 2.68977 -16.6053
LeftShoulder1  1.31984 -0.329432 -28.3351
LeftArm  14.9484 14.3931 -30.5596
LeftForeArm  1.05413 -19.7637 -7.1384
LeftHand  0.203873 -2.41981 -2.84334
RightShoulder  5.79499 9.7622 37.6969
RightArm  9.45854 5.42633 9.91847
RightForeArm  -5.55386 30.5114 6.96552
RightHand  0.304366 3.76634 3.59673
LeftUpLeg  -29.3127 28.6365 -6.79838
LeftLeg  47.2082 -2.6835 -2.68901
LeftFoot  -1.29564 1.25173 -14.0968
LeftToes  -3.90176e-010 -2.48536e-010 1.05482e-011
900
root  65.0787 39.6497 -51.7499 -20.6422 -78.9246 28.6071
RightUpLeg  -11.6117 -15.1575 -13.8567
RightLeg  16.3613 1.76909 1.24795
RightFoot  -7.89818 -0.46829 13.7238
RightToes  5.82063e-011 0 -3.6325e-017
Spine  13.3513 -0.887059 10.9758
Spine1  -1.49558 -0.369586 1.98072
HEad  5.55261 1.83851 -16.5905
LeftShoulder1  1.32108 -0.374506 -27.9579
LeftArm  15.6417 14.3899 -29.4932
LeftForeArm  -0.828813 -21.1669 -6.08968
LeftHand  0.20221 -2.22894 -2.90588
RightShoulder  5.82298 9.71102 38.0651
RightArm  6.74804 6.09745 9.67978
RightForeArm  -3.96398 33.7694 7.7481
RightHand  0.300379 3.59769 3.62518
LeftUpLeg  -30.5303 28.7008 -7.50754
LeftLeg  41.2437 -5.93039 -5.17294
LeftFoot  -1.96815 1.28604 -15.4664
LeftToes  -3.90176e-010 -2.48536e-010 1.05482e-011
901
root  64.3824 39.787 -51.5813 -20.2471 -78.3441 28.8174
RightUpLeg  -9.49949 -15.018 -14.5403
RightLeg  13.6769 0.989824 1.28226
RightFoot  -7.62574 -0.511333 14.0912
RightToes  5.82063e-011 0 -3.6325e-017
Spine  13.2758 -0.725702 10.155
Spine1  -1.89976 -0.40602 2.44888
HEad  5.37076 0.848335 -16.1458
LeftShoulder1  1.31075 -0.382813 -27.6101
LeftArm  15.1433 14.0537 -28.5305
LeftForeArm  -0.943811 -22.5226 -5.29303
LeftHand  0.203773 -2.23099 -2.8878
RightShoulder  5.95775 9.80054 38.7535
RightArm  4.71257 6.47274 9.7103
RightForeArm  -2.6351 36.7294 8.5273
RightHand  0.293982 3.36978 3.65202
LeftUpLeg  -30.6483 27.8211 -7.44475
LeftLeg  33.7596 -7.85295 -5.2729
LeftFoot  -1.96041 1.29442 -15.5548
LeftToes  -3.90176e-010 -2.48536e-010 1.05482e-011
902
root  63.6951 39.856 -51.3689 -19.7761 -77.864 28.7326
RightUpLeg  -7.3627 -14.9518 -15.1641
RightLeg  11.3467 0.411625 1.30497
RightFoot  -7.6363 -0.525858 14.571
RightToes  5.82063e-011 0 -3.6325e-017
Spine  13.2652 -0.592911 9.45861
Spine1  -2.10808 -0.322727 2.41649
HEad  5.13431 -0.200773 -15.3076
LeftShoulder1  1.30783 -0.399381 -27.3859
LeftArm  13.1467 13.3695 -27.3937
LeftForeArm  0.474506 -23.8862 -5.08015
LeftHand  0.207994 -2.2971 -2.97442
RightShoulder  6.21013 10.0349 39.7921
RightArm  3.60094 6.73339 9.9194
RightForeArm  -1.74844 39.0008 9.18116
RightHand  0.2912 3.25755 3.6707
LeftUpLeg  -29.6885 26.302 -6.64884
LeftLeg  24.9176 -7.80123 -3.61385
LeftFoot  -1.46127 1.29627 -14.8289
LeftToes  -3.90176e-010 -2.48536e-010 1.05482e-011
903
root  63.0074 39.8353 -51.0965 -18.2076 -77.589 27.4452
RightUpLeg  -5.52559 -14.9097 -15.5024
RightLeg  9.78595 0.030652 1.332
RightFoot  -8.03581 -0.488672 14.9527
RightToes  5.82063e-011 0 -3.6325e-017
Spine  13.0923 -0.462143 8.99939
Spine1  -2.02118 -0.196691 2.29216
HEad  4.87266 -0.914519 -14.6177
LeftShoulder1  1.29752 -0.3859 -27.2323
LeftArm  10.5378 12.5503 -26.2931
LeftForeArm  2.65153 -25.3237 -5.28787
LeftHand  0.210495 -2.30487 -2.99592
RightShoulder  6.52902 10.4128 40.7803
RightArm  3.24168 6.93961 10.5271
RightForeArm  -1.56211 40.718 9.73803
RightHand  0.2944 3.06921 3.81108
LeftUpLeg  -28.0361 24.2931 -4.90026
LeftLeg  15.621 -5.41771 -1.70286
LeftFoot  -0.813195 1.28429 -13.8331
LeftToes  -3.90176e-010 -2.48536e-010 1.05482e-011
904
root  62.2756 39.721 -50.7443 -14.4604 -77.4423 23.8044
RightUpLeg  -3.57584 -14.6202 -15.3957
RightLeg  8.52287 -0.721494 1.36195
RightFoot  -8.79064 -0.406704 15.4811
RightToes  5.82063e-011 0 -3.6325e-017
Spine  12.6869 -0.437368 8.88292
Spine1  -1.75742 -0.182897 2.27159
HEad  4.68515 -1.34099 -13.9504
LeftShoulder1  1.27365 -0.340377 -26.9985
LeftArm  7.79647 11.8199 -25.3152
LeftForeArm  4.77104 -26.744 -5.4995
LeftHand  0.207585 -2.35646 -2.98923
RightShoulder  6.96604 11.0036 41.8112
RightArm  3.72469 7.0734 11.3778
RightForeArm  -1.82148 41.9196 10.1721
RightHand  0.31264 2.87681 4.1712
LeftUpLeg  -24.7246 12.653 3.07885
LeftLeg  7.23136 8.27195 -3.05001
LeftFoot  -0.0584274 1.13049 -11.4133
LeftToes  -3.90176e-010 -2.48536e-010 1.05482e-011
905
root  61.4936 39.5029 -50.3072 -9.38748 -77.1821 18.6518
RightUpLeg  -1.55595 -14.1508 -15.0499
RightLeg  7.80551 -1.67798 1.32159
RightFoot  -9.96948 -0.261875 16.0827
RightToes  5.82063e-011 0 -3.6325e-017
Spine  12.3186 -0.445325 8.66624
Spine1  -1.60457 -0.312932 2.70311
HEad  4.71291 -1.81908 -13.2283
LeftShoulder1  1.25143 -0.315014 -26.6242
LeftArm  5.61255 11.0296 -24.3296
LeftForeArm  6.13349 -28.2299 -5.77307
LeftHand  0.208189 -2.18659 -3.01772
RightShoulder  7.40759 11.5433 42.9365
RightArm  4.97105 7.31432 12.2334
RightForeArm  -1.93833 42.7525 10.48
RightHand  0.331289 2.67802 4.55859
LeftUpLeg  -23.8884 9.30741 6.49305
LeftLeg  2.08274 11.5208 -3.66873
LeftFoot  0.505253 1.02343 -9.87718
LeftToes  -3.90176e-010 -2.48536e-010 1.05482e-011
906
root  60.6237 39.2005 -49.7415 -5.13068 -76.5925 14.0325
RightUpLeg  0.82457 -13.9022 -15.1267
RightLeg  7.5866 -2.27535 1.28078
RightFoot  -11.4316 -0.0646159 17.062
RightToes  5.82063e-011 0 -3.6325e-017
Spine  11.9879 -0.475485 8.1301
Spine1  -1.39081 -0.537247 3.31711
HEad  4.98872 -2.62233 -12.2531
LeftShoulder1  1.24635 -0.358533 -26.1059
LeftArm  4.23044 9.45098 -23.3558
LeftForeArm  6.81707 -28.8176 -5.87565
LeftHand  0.21697 -2.49828 -3.00161
RightShoulder  7.762 11.8455 44.17
RightArm  6.07659 7.3363 12.9761
RightForeArm  -1.22454 43.4721 10.7011
RightHand  0.398103 2.91904 5.33899
LeftUpLeg  -24.3725 9.73802 7.7645
LeftLeg  1.8769 9.63367 -3.3062
LeftFoot  0.432779 0.835913 -8.12433
LeftToes  -3.90176e-010 -2.48536e-010 1.05482e-011
